  0
SECTION
  2
HEADER
  9
$ANGBASE
  50
0.0
  9
$ANGDIR
  70
1
  9
$MEASUREMENT
  70
0
  0
ENDSEC
  0
SECTION
  2
TABLES
  0
TABLE
  2
LTYPE
  70
4
  0
LTYPE
  5
40F
  2
CONTINUOUS
  70
0
  3
Solid line
  72
65
  73
0
  40
0.0
  0
LTYPE
  5
410
  2
DASHDOT
 70
0
  3
Dash Dot ____ _ ____ _
 72
65
 73
4
 40
2.0
 49
1.25
 49
-0.25
 49
0.25
 49
-0.25
  0
LTYPE
  5
411
  2
DASHED
 70
0
  3
Dashed __ __ __ __ __
 72
65
 73
2
 40
0.75
 49
0.5
 49
-0.25
  0
LTYPE
  5
43B
  2
DOTTED
 70
0
  3
Dotted .  .  .  .
 72
65
 73
2
 40
0.2
 49
0.0
 49
-0.2
  0
ENDTAB
  0
TABLE
  2
STYLE
  70
4
  0
STYLE
  2
KICAD
  70
0
  40
0
  41
1
  42
1
  50
0
  71
0
  3
isocp.shx
  0
STYLE
  2
KICADB
  70
0
  40
0
  41
1
  42
1
  50
0
  71
0
  3
isocp.shx
  0
STYLE
  2
KICADI
  70
0
  40
0
  41
1
  42
1
  50
15
  71
0
  3
isocp.shx
  0
STYLE
  2
KICADBI
  70
0
  40
0
  41
1
  42
1
  50
15
  71
0
  3
isocp.shx
  0
ENDTAB
  0
TABLE
  2
LAYER
  70
1
  0
LAYER
  2
BLACK
  70
0
  62
7
  6
CONTINUOUS
  0
ENDTAB
  0
ENDSEC
  0
SECTION
  2
ENTITIES
0
LINE
8
BLACK
6
CONTINUOUS
10
6.27569
20
-4.28879
11
6.28515
21
-4.29106
0
LINE
8
BLACK
6
CONTINUOUS
10
6.28515
20
-4.29106
11
6.29413
21
-4.29479
0
LINE
8
BLACK
6
CONTINUOUS
10
6.29413
20
-4.29479
11
6.30242
21
-4.29987
0
LINE
8
BLACK
6
CONTINUOUS
10
6.30242
20
-4.29987
11
6.30982
21
-4.30618
0
LINE
8
BLACK
6
CONTINUOUS
10
6.30982
20
-4.30618
11
6.31613
21
-4.31358
0
LINE
8
BLACK
6
CONTINUOUS
10
6.31613
20
-4.31358
11
6.32121
21
-4.32187
0
LINE
8
BLACK
6
CONTINUOUS
10
6.32121
20
-4.32187
11
6.32494
21
-4.33085
0
LINE
8
BLACK
6
CONTINUOUS
10
6.32494
20
-4.33085
11
6.32721
21
-4.34031
0
LINE
8
BLACK
6
CONTINUOUS
10
6.32721
20
-4.34031
11
6.32797
21
-4.35
0
LINE
8
BLACK
6
CONTINUOUS
10
6.32797
20
-4.35
11
6.32721
21
-4.35969
0
LINE
8
BLACK
6
CONTINUOUS
10
6.32721
20
-4.35969
11
6.32494
21
-4.36915
0
LINE
8
BLACK
6
CONTINUOUS
10
6.32494
20
-4.36915
11
6.32121
21
-4.37813
0
LINE
8
BLACK
6
CONTINUOUS
10
6.32121
20
-4.37813
11
6.31613
21
-4.38642
0
LINE
8
BLACK
6
CONTINUOUS
10
6.31613
20
-4.38642
11
6.30982
21
-4.39382
0
LINE
8
BLACK
6
CONTINUOUS
10
6.30982
20
-4.39382
11
6.30242
21
-4.40013
0
LINE
8
BLACK
6
CONTINUOUS
10
6.30242
20
-4.40013
11
6.29413
21
-4.40521
0
LINE
8
BLACK
6
CONTINUOUS
10
6.29413
20
-4.40521
11
6.28515
21
-4.40894
0
LINE
8
BLACK
6
CONTINUOUS
10
6.28515
20
-4.40894
11
6.27569
21
-4.41121
0
LINE
8
BLACK
6
CONTINUOUS
10
6.27569
20
-4.41121
11
6.266
21
-4.41197
0
LINE
8
BLACK
6
CONTINUOUS
10
6.266
20
-4.41197
11
6.25631
21
-4.41121
0
LINE
8
BLACK
6
CONTINUOUS
10
6.25631
20
-4.41121
11
6.24685
21
-4.40894
0
LINE
8
BLACK
6
CONTINUOUS
10
6.24685
20
-4.40894
11
6.23787
21
-4.40521
0
LINE
8
BLACK
6
CONTINUOUS
10
6.23787
20
-4.40521
11
6.22958
21
-4.40013
0
LINE
8
BLACK
6
CONTINUOUS
10
6.22958
20
-4.40013
11
6.22218
21
-4.39382
0
LINE
8
BLACK
6
CONTINUOUS
10
6.22218
20
-4.39382
11
6.21587
21
-4.38642
0
LINE
8
BLACK
6
CONTINUOUS
10
6.21587
20
-4.38642
11
6.21079
21
-4.37813
0
LINE
8
BLACK
6
CONTINUOUS
10
6.21079
20
-4.37813
11
6.20706
21
-4.36915
0
LINE
8
BLACK
6
CONTINUOUS
10
6.20706
20
-4.36915
11
6.20479
21
-4.35969
0
LINE
8
BLACK
6
CONTINUOUS
10
6.20479
20
-4.35969
11
6.20403
21
-4.35
0
LINE
8
BLACK
6
CONTINUOUS
10
6.20403
20
-4.35
11
6.20479
21
-4.34031
0
LINE
8
BLACK
6
CONTINUOUS
10
6.20479
20
-4.34031
11
6.20706
21
-4.33085
0
LINE
8
BLACK
6
CONTINUOUS
10
6.20706
20
-4.33085
11
6.21079
21
-4.32187
0
LINE
8
BLACK
6
CONTINUOUS
10
6.21079
20
-4.32187
11
6.21587
21
-4.31358
0
LINE
8
BLACK
6
CONTINUOUS
10
6.21587
20
-4.31358
11
6.22218
21
-4.30618
0
LINE
8
BLACK
6
CONTINUOUS
10
6.22218
20
-4.30618
11
6.22958
21
-4.29987
0
LINE
8
BLACK
6
CONTINUOUS
10
6.22958
20
-4.29987
11
6.23787
21
-4.29479
0
LINE
8
BLACK
6
CONTINUOUS
10
6.23787
20
-4.29479
11
6.24685
21
-4.29106
0
LINE
8
BLACK
6
CONTINUOUS
10
6.24685
20
-4.29106
11
6.25631
21
-4.28879
0
LINE
8
BLACK
6
CONTINUOUS
10
6.25631
20
-4.28879
11
6.266
21
-4.28803
0
LINE
8
BLACK
6
CONTINUOUS
10
6.266
20
-4.28803
11
6.27569
21
-4.28879
0
LINE
8
BLACK
6
CONTINUOUS
10
6.20856
20
-4.35958
11
6.21092
21
-4.36891
0
LINE
8
BLACK
6
CONTINUOUS
10
6.21092
20
-4.36891
11
6.21479
21
-4.37771
0
LINE
8
BLACK
6
CONTINUOUS
10
6.21479
20
-4.37771
11
6.22005
21
-4.38577
0
LINE
8
BLACK
6
CONTINUOUS
10
6.22005
20
-4.38577
11
6.22656
21
-4.39284
0
LINE
8
BLACK
6
CONTINUOUS
10
6.22656
20
-4.39284
11
6.23415
21
-4.39875
0
LINE
8
BLACK
6
CONTINUOUS
10
6.23415
20
-4.39875
11
6.24261
21
-4.40333
0
LINE
8
BLACK
6
CONTINUOUS
10
6.24261
20
-4.40333
11
6.25171
21
-4.40645
0
LINE
8
BLACK
6
CONTINUOUS
10
6.25171
20
-4.40645
11
6.26119
21
-4.40803
0
LINE
8
BLACK
6
CONTINUOUS
10
6.26119
20
-4.40803
11
6.27081
21
-4.40803
0
LINE
8
BLACK
6
CONTINUOUS
10
6.27081
20
-4.40803
11
6.28029
21
-4.40645
0
LINE
8
BLACK
6
CONTINUOUS
10
6.28029
20
-4.40645
11
6.28939
21
-4.40333
0
LINE
8
BLACK
6
CONTINUOUS
10
6.28939
20
-4.40333
11
6.29785
21
-4.39875
0
LINE
8
BLACK
6
CONTINUOUS
10
6.29785
20
-4.39875
11
6.30544
21
-4.39284
0
LINE
8
BLACK
6
CONTINUOUS
10
6.30544
20
-4.39284
11
6.31195
21
-4.38577
0
LINE
8
BLACK
6
CONTINUOUS
10
6.31195
20
-4.38577
11
6.31721
21
-4.37771
0
LINE
8
BLACK
6
CONTINUOUS
10
6.31721
20
-4.37771
11
6.32108
21
-4.36891
0
LINE
8
BLACK
6
CONTINUOUS
10
6.32108
20
-4.36891
11
6.32344
21
-4.35958
0
LINE
8
BLACK
6
CONTINUOUS
10
6.32344
20
-4.35958
11
6.32423
21
-4.35
0
LINE
8
BLACK
6
CONTINUOUS
10
6.32423
20
-4.35
11
6.32344
21
-4.34042
0
LINE
8
BLACK
6
CONTINUOUS
10
6.32344
20
-4.34042
11
6.32108
21
-4.33109
0
LINE
8
BLACK
6
CONTINUOUS
10
6.32108
20
-4.33109
11
6.31721
21
-4.32229
0
LINE
8
BLACK
6
CONTINUOUS
10
6.31721
20
-4.32229
11
6.31195
21
-4.31423
0
LINE
8
BLACK
6
CONTINUOUS
10
6.31195
20
-4.31423
11
6.30544
21
-4.30716
0
LINE
8
BLACK
6
CONTINUOUS
10
6.30544
20
-4.30716
11
6.29785
21
-4.30125
0
LINE
8
BLACK
6
CONTINUOUS
10
6.29785
20
-4.30125
11
6.28939
21
-4.29667
0
LINE
8
BLACK
6
CONTINUOUS
10
6.28939
20
-4.29667
11
6.28029
21
-4.29355
0
LINE
8
BLACK
6
CONTINUOUS
10
6.28029
20
-4.29355
11
6.27081
21
-4.29197
0
LINE
8
BLACK
6
CONTINUOUS
10
6.27081
20
-4.29197
11
6.26119
21
-4.29197
0
LINE
8
BLACK
6
CONTINUOUS
10
6.26119
20
-4.29197
11
6.25171
21
-4.29355
0
LINE
8
BLACK
6
CONTINUOUS
10
6.25171
20
-4.29355
11
6.24261
21
-4.29667
0
LINE
8
BLACK
6
CONTINUOUS
10
6.24261
20
-4.29667
11
6.23415
21
-4.30125
0
LINE
8
BLACK
6
CONTINUOUS
10
6.23415
20
-4.30125
11
6.22656
21
-4.30716
0
LINE
8
BLACK
6
CONTINUOUS
10
6.22656
20
-4.30716
11
6.22005
21
-4.31423
0
LINE
8
BLACK
6
CONTINUOUS
10
6.22005
20
-4.31423
11
6.21479
21
-4.32229
0
LINE
8
BLACK
6
CONTINUOUS
10
6.21479
20
-4.32229
11
6.21092
21
-4.33109
0
LINE
8
BLACK
6
CONTINUOUS
10
6.21092
20
-4.33109
11
6.20856
21
-4.34042
0
LINE
8
BLACK
6
CONTINUOUS
10
6.20856
20
-4.34042
11
6.20777
21
-4.35
0
LINE
8
BLACK
6
CONTINUOUS
10
6.20777
20
-4.35
11
6.20856
21
-4.35958
0
LINE
8
BLACK
6
CONTINUOUS
10
5.72769
20
-3.34279
11
5.73715
21
-3.34506
0
LINE
8
BLACK
6
CONTINUOUS
10
5.73715
20
-3.34506
11
5.74613
21
-3.34879
0
LINE
8
BLACK
6
CONTINUOUS
10
5.74613
20
-3.34879
11
5.75442
21
-3.35387
0
LINE
8
BLACK
6
CONTINUOUS
10
5.75442
20
-3.35387
11
5.76182
21
-3.36018
0
LINE
8
BLACK
6
CONTINUOUS
10
5.76182
20
-3.36018
11
5.76813
21
-3.36758
0
LINE
8
BLACK
6
CONTINUOUS
10
5.76813
20
-3.36758
11
5.77321
21
-3.37587
0
LINE
8
BLACK
6
CONTINUOUS
10
5.77321
20
-3.37587
11
5.77694
21
-3.38485
0
LINE
8
BLACK
6
CONTINUOUS
10
5.77694
20
-3.38485
11
5.77921
21
-3.39431
0
LINE
8
BLACK
6
CONTINUOUS
10
5.77921
20
-3.39431
11
5.77997
21
-3.404
0
LINE
8
BLACK
6
CONTINUOUS
10
5.77997
20
-3.404
11
5.77921
21
-3.41369
0
LINE
8
BLACK
6
CONTINUOUS
10
5.77921
20
-3.41369
11
5.77694
21
-3.42315
0
LINE
8
BLACK
6
CONTINUOUS
10
5.77694
20
-3.42315
11
5.77321
21
-3.43213
0
LINE
8
BLACK
6
CONTINUOUS
10
5.77321
20
-3.43213
11
5.76813
21
-3.44042
0
LINE
8
BLACK
6
CONTINUOUS
10
5.76813
20
-3.44042
11
5.76182
21
-3.44782
0
LINE
8
BLACK
6
CONTINUOUS
10
5.76182
20
-3.44782
11
5.75442
21
-3.45413
0
LINE
8
BLACK
6
CONTINUOUS
10
5.75442
20
-3.45413
11
5.74613
21
-3.45921
0
LINE
8
BLACK
6
CONTINUOUS
10
5.74613
20
-3.45921
11
5.73715
21
-3.46294
0
LINE
8
BLACK
6
CONTINUOUS
10
5.73715
20
-3.46294
11
5.72769
21
-3.46521
0
LINE
8
BLACK
6
CONTINUOUS
10
5.72769
20
-3.46521
11
5.718
21
-3.46597
0
LINE
8
BLACK
6
CONTINUOUS
10
5.718
20
-3.46597
11
5.70831
21
-3.46521
0
LINE
8
BLACK
6
CONTINUOUS
10
5.70831
20
-3.46521
11
5.69885
21
-3.46294
0
LINE
8
BLACK
6
CONTINUOUS
10
5.69885
20
-3.46294
11
5.68987
21
-3.45921
0
LINE
8
BLACK
6
CONTINUOUS
10
5.68987
20
-3.45921
11
5.68158
21
-3.45413
0
LINE
8
BLACK
6
CONTINUOUS
10
5.68158
20
-3.45413
11
5.67418
21
-3.44782
0
LINE
8
BLACK
6
CONTINUOUS
10
5.67418
20
-3.44782
11
5.66787
21
-3.44042
0
LINE
8
BLACK
6
CONTINUOUS
10
5.66787
20
-3.44042
11
5.66279
21
-3.43213
0
LINE
8
BLACK
6
CONTINUOUS
10
5.66279
20
-3.43213
11
5.65906
21
-3.42315
0
LINE
8
BLACK
6
CONTINUOUS
10
5.65906
20
-3.42315
11
5.65679
21
-3.41369
0
LINE
8
BLACK
6
CONTINUOUS
10
5.65679
20
-3.41369
11
5.65603
21
-3.404
0
LINE
8
BLACK
6
CONTINUOUS
10
5.65603
20
-3.404
11
5.65679
21
-3.39431
0
LINE
8
BLACK
6
CONTINUOUS
10
5.65679
20
-3.39431
11
5.65906
21
-3.38485
0
LINE
8
BLACK
6
CONTINUOUS
10
5.65906
20
-3.38485
11
5.66279
21
-3.37587
0
LINE
8
BLACK
6
CONTINUOUS
10
5.66279
20
-3.37587
11
5.66787
21
-3.36758
0
LINE
8
BLACK
6
CONTINUOUS
10
5.66787
20
-3.36758
11
5.67418
21
-3.36018
0
LINE
8
BLACK
6
CONTINUOUS
10
5.67418
20
-3.36018
11
5.68158
21
-3.35387
0
LINE
8
BLACK
6
CONTINUOUS
10
5.68158
20
-3.35387
11
5.68987
21
-3.34879
0
LINE
8
BLACK
6
CONTINUOUS
10
5.68987
20
-3.34879
11
5.69885
21
-3.34506
0
LINE
8
BLACK
6
CONTINUOUS
10
5.69885
20
-3.34506
11
5.70831
21
-3.34279
0
LINE
8
BLACK
6
CONTINUOUS
10
5.70831
20
-3.34279
11
5.718
21
-3.34203
0
LINE
8
BLACK
6
CONTINUOUS
10
5.718
20
-3.34203
11
5.72769
21
-3.34279
0
LINE
8
BLACK
6
CONTINUOUS
10
5.66056
20
-3.41358
11
5.66292
21
-3.42291
0
LINE
8
BLACK
6
CONTINUOUS
10
5.66292
20
-3.42291
11
5.66679
21
-3.43171
0
LINE
8
BLACK
6
CONTINUOUS
10
5.66679
20
-3.43171
11
5.67205
21
-3.43977
0
LINE
8
BLACK
6
CONTINUOUS
10
5.67205
20
-3.43977
11
5.67856
21
-3.44684
0
LINE
8
BLACK
6
CONTINUOUS
10
5.67856
20
-3.44684
11
5.68615
21
-3.45275
0
LINE
8
BLACK
6
CONTINUOUS
10
5.68615
20
-3.45275
11
5.69461
21
-3.45733
0
LINE
8
BLACK
6
CONTINUOUS
10
5.69461
20
-3.45733
11
5.70371
21
-3.46045
0
LINE
8
BLACK
6
CONTINUOUS
10
5.70371
20
-3.46045
11
5.71319
21
-3.46203
0
LINE
8
BLACK
6
CONTINUOUS
10
5.71319
20
-3.46203
11
5.72281
21
-3.46203
0
LINE
8
BLACK
6
CONTINUOUS
10
5.72281
20
-3.46203
11
5.73229
21
-3.46045
0
LINE
8
BLACK
6
CONTINUOUS
10
5.73229
20
-3.46045
11
5.74139
21
-3.45733
0
LINE
8
BLACK
6
CONTINUOUS
10
5.74139
20
-3.45733
11
5.74985
21
-3.45275
0
LINE
8
BLACK
6
CONTINUOUS
10
5.74985
20
-3.45275
11
5.75744
21
-3.44684
0
LINE
8
BLACK
6
CONTINUOUS
10
5.75744
20
-3.44684
11
5.76395
21
-3.43977
0
LINE
8
BLACK
6
CONTINUOUS
10
5.76395
20
-3.43977
11
5.76921
21
-3.43171
0
LINE
8
BLACK
6
CONTINUOUS
10
5.76921
20
-3.43171
11
5.77308
21
-3.42291
0
LINE
8
BLACK
6
CONTINUOUS
10
5.77308
20
-3.42291
11
5.77544
21
-3.41358
0
LINE
8
BLACK
6
CONTINUOUS
10
5.77544
20
-3.41358
11
5.77623
21
-3.404
0
LINE
8
BLACK
6
CONTINUOUS
10
5.77623
20
-3.404
11
5.77544
21
-3.39442
0
LINE
8
BLACK
6
CONTINUOUS
10
5.77544
20
-3.39442
11
5.77308
21
-3.38509
0
LINE
8
BLACK
6
CONTINUOUS
10
5.77308
20
-3.38509
11
5.76921
21
-3.37629
0
LINE
8
BLACK
6
CONTINUOUS
10
5.76921
20
-3.37629
11
5.76395
21
-3.36823
0
LINE
8
BLACK
6
CONTINUOUS
10
5.76395
20
-3.36823
11
5.75744
21
-3.36116
0
LINE
8
BLACK
6
CONTINUOUS
10
5.75744
20
-3.36116
11
5.74985
21
-3.35525
0
LINE
8
BLACK
6
CONTINUOUS
10
5.74985
20
-3.35525
11
5.74139
21
-3.35067
0
LINE
8
BLACK
6
CONTINUOUS
10
5.74139
20
-3.35067
11
5.73229
21
-3.34755
0
LINE
8
BLACK
6
CONTINUOUS
10
5.73229
20
-3.34755
11
5.72281
21
-3.34597
0
LINE
8
BLACK
6
CONTINUOUS
10
5.72281
20
-3.34597
11
5.71319
21
-3.34597
0
LINE
8
BLACK
6
CONTINUOUS
10
5.71319
20
-3.34597
11
5.70371
21
-3.34755
0
LINE
8
BLACK
6
CONTINUOUS
10
5.70371
20
-3.34755
11
5.69461
21
-3.35067
0
LINE
8
BLACK
6
CONTINUOUS
10
5.69461
20
-3.35067
11
5.68615
21
-3.35525
0
LINE
8
BLACK
6
CONTINUOUS
10
5.68615
20
-3.35525
11
5.67856
21
-3.36116
0
LINE
8
BLACK
6
CONTINUOUS
10
5.67856
20
-3.36116
11
5.67205
21
-3.36823
0
LINE
8
BLACK
6
CONTINUOUS
10
5.67205
20
-3.36823
11
5.66679
21
-3.37629
0
LINE
8
BLACK
6
CONTINUOUS
10
5.66679
20
-3.37629
11
5.66292
21
-3.38509
0
LINE
8
BLACK
6
CONTINUOUS
10
5.66292
20
-3.38509
11
5.66056
21
-3.39442
0
LINE
8
BLACK
6
CONTINUOUS
10
5.66056
20
-3.39442
11
5.65977
21
-3.404
0
LINE
8
BLACK
6
CONTINUOUS
10
5.65977
20
-3.404
11
5.66056
21
-3.41358
0
LINE
8
BLACK
6
CONTINUOUS
10
6.82369
20
-3.34279
11
6.83315
21
-3.34506
0
LINE
8
BLACK
6
CONTINUOUS
10
6.83315
20
-3.34506
11
6.84213
21
-3.34879
0
LINE
8
BLACK
6
CONTINUOUS
10
6.84213
20
-3.34879
11
6.85042
21
-3.35387
0
LINE
8
BLACK
6
CONTINUOUS
10
6.85042
20
-3.35387
11
6.85782
21
-3.36018
0
LINE
8
BLACK
6
CONTINUOUS
10
6.85782
20
-3.36018
11
6.86413
21
-3.36758
0
LINE
8
BLACK
6
CONTINUOUS
10
6.86413
20
-3.36758
11
6.86921
21
-3.37587
0
LINE
8
BLACK
6
CONTINUOUS
10
6.86921
20
-3.37587
11
6.87294
21
-3.38485
0
LINE
8
BLACK
6
CONTINUOUS
10
6.87294
20
-3.38485
11
6.87521
21
-3.39431
0
LINE
8
BLACK
6
CONTINUOUS
10
6.87521
20
-3.39431
11
6.87597
21
-3.404
0
LINE
8
BLACK
6
CONTINUOUS
10
6.87597
20
-3.404
11
6.87521
21
-3.41369
0
LINE
8
BLACK
6
CONTINUOUS
10
6.87521
20
-3.41369
11
6.87294
21
-3.42315
0
LINE
8
BLACK
6
CONTINUOUS
10
6.87294
20
-3.42315
11
6.86921
21
-3.43213
0
LINE
8
BLACK
6
CONTINUOUS
10
6.86921
20
-3.43213
11
6.86413
21
-3.44042
0
LINE
8
BLACK
6
CONTINUOUS
10
6.86413
20
-3.44042
11
6.85782
21
-3.44782
0
LINE
8
BLACK
6
CONTINUOUS
10
6.85782
20
-3.44782
11
6.85042
21
-3.45413
0
LINE
8
BLACK
6
CONTINUOUS
10
6.85042
20
-3.45413
11
6.84213
21
-3.45921
0
LINE
8
BLACK
6
CONTINUOUS
10
6.84213
20
-3.45921
11
6.83315
21
-3.46294
0
LINE
8
BLACK
6
CONTINUOUS
10
6.83315
20
-3.46294
11
6.82369
21
-3.46521
0
LINE
8
BLACK
6
CONTINUOUS
10
6.82369
20
-3.46521
11
6.814
21
-3.46597
0
LINE
8
BLACK
6
CONTINUOUS
10
6.814
20
-3.46597
11
6.80431
21
-3.46521
0
LINE
8
BLACK
6
CONTINUOUS
10
6.80431
20
-3.46521
11
6.79485
21
-3.46294
0
LINE
8
BLACK
6
CONTINUOUS
10
6.79485
20
-3.46294
11
6.78587
21
-3.45921
0
LINE
8
BLACK
6
CONTINUOUS
10
6.78587
20
-3.45921
11
6.77758
21
-3.45413
0
LINE
8
BLACK
6
CONTINUOUS
10
6.77758
20
-3.45413
11
6.77018
21
-3.44782
0
LINE
8
BLACK
6
CONTINUOUS
10
6.77018
20
-3.44782
11
6.76387
21
-3.44042
0
LINE
8
BLACK
6
CONTINUOUS
10
6.76387
20
-3.44042
11
6.75879
21
-3.43213
0
LINE
8
BLACK
6
CONTINUOUS
10
6.75879
20
-3.43213
11
6.75506
21
-3.42315
0
LINE
8
BLACK
6
CONTINUOUS
10
6.75506
20
-3.42315
11
6.75279
21
-3.41369
0
LINE
8
BLACK
6
CONTINUOUS
10
6.75279
20
-3.41369
11
6.75203
21
-3.404
0
LINE
8
BLACK
6
CONTINUOUS
10
6.75203
20
-3.404
11
6.75279
21
-3.39431
0
LINE
8
BLACK
6
CONTINUOUS
10
6.75279
20
-3.39431
11
6.75506
21
-3.38485
0
LINE
8
BLACK
6
CONTINUOUS
10
6.75506
20
-3.38485
11
6.75879
21
-3.37587
0
LINE
8
BLACK
6
CONTINUOUS
10
6.75879
20
-3.37587
11
6.76387
21
-3.36758
0
LINE
8
BLACK
6
CONTINUOUS
10
6.76387
20
-3.36758
11
6.77018
21
-3.36018
0
LINE
8
BLACK
6
CONTINUOUS
10
6.77018
20
-3.36018
11
6.77758
21
-3.35387
0
LINE
8
BLACK
6
CONTINUOUS
10
6.77758
20
-3.35387
11
6.78587
21
-3.34879
0
LINE
8
BLACK
6
CONTINUOUS
10
6.78587
20
-3.34879
11
6.79485
21
-3.34506
0
LINE
8
BLACK
6
CONTINUOUS
10
6.79485
20
-3.34506
11
6.80431
21
-3.34279
0
LINE
8
BLACK
6
CONTINUOUS
10
6.80431
20
-3.34279
11
6.814
21
-3.34203
0
LINE
8
BLACK
6
CONTINUOUS
10
6.814
20
-3.34203
11
6.82369
21
-3.34279
0
LINE
8
BLACK
6
CONTINUOUS
10
6.75656
20
-3.41358
11
6.75892
21
-3.42291
0
LINE
8
BLACK
6
CONTINUOUS
10
6.75892
20
-3.42291
11
6.76279
21
-3.43171
0
LINE
8
BLACK
6
CONTINUOUS
10
6.76279
20
-3.43171
11
6.76805
21
-3.43977
0
LINE
8
BLACK
6
CONTINUOUS
10
6.76805
20
-3.43977
11
6.77456
21
-3.44684
0
LINE
8
BLACK
6
CONTINUOUS
10
6.77456
20
-3.44684
11
6.78215
21
-3.45275
0
LINE
8
BLACK
6
CONTINUOUS
10
6.78215
20
-3.45275
11
6.79061
21
-3.45733
0
LINE
8
BLACK
6
CONTINUOUS
10
6.79061
20
-3.45733
11
6.79971
21
-3.46045
0
LINE
8
BLACK
6
CONTINUOUS
10
6.79971
20
-3.46045
11
6.80919
21
-3.46203
0
LINE
8
BLACK
6
CONTINUOUS
10
6.80919
20
-3.46203
11
6.81881
21
-3.46203
0
LINE
8
BLACK
6
CONTINUOUS
10
6.81881
20
-3.46203
11
6.82829
21
-3.46045
0
LINE
8
BLACK
6
CONTINUOUS
10
6.82829
20
-3.46045
11
6.83739
21
-3.45733
0
LINE
8
BLACK
6
CONTINUOUS
10
6.83739
20
-3.45733
11
6.84585
21
-3.45275
0
LINE
8
BLACK
6
CONTINUOUS
10
6.84585
20
-3.45275
11
6.85344
21
-3.44684
0
LINE
8
BLACK
6
CONTINUOUS
10
6.85344
20
-3.44684
11
6.85995
21
-3.43977
0
LINE
8
BLACK
6
CONTINUOUS
10
6.85995
20
-3.43977
11
6.86521
21
-3.43171
0
LINE
8
BLACK
6
CONTINUOUS
10
6.86521
20
-3.43171
11
6.86908
21
-3.42291
0
LINE
8
BLACK
6
CONTINUOUS
10
6.86908
20
-3.42291
11
6.87144
21
-3.41358
0
LINE
8
BLACK
6
CONTINUOUS
10
6.87144
20
-3.41358
11
6.87223
21
-3.404
0
LINE
8
BLACK
6
CONTINUOUS
10
6.87223
20
-3.404
11
6.87144
21
-3.39442
0
LINE
8
BLACK
6
CONTINUOUS
10
6.87144
20
-3.39442
11
6.86908
21
-3.38509
0
LINE
8
BLACK
6
CONTINUOUS
10
6.86908
20
-3.38509
11
6.86521
21
-3.37629
0
LINE
8
BLACK
6
CONTINUOUS
10
6.86521
20
-3.37629
11
6.85995
21
-3.36823
0
LINE
8
BLACK
6
CONTINUOUS
10
6.85995
20
-3.36823
11
6.85344
21
-3.36116
0
LINE
8
BLACK
6
CONTINUOUS
10
6.85344
20
-3.36116
11
6.84585
21
-3.35525
0
LINE
8
BLACK
6
CONTINUOUS
10
6.84585
20
-3.35525
11
6.83739
21
-3.35067
0
LINE
8
BLACK
6
CONTINUOUS
10
6.83739
20
-3.35067
11
6.82829
21
-3.34755
0
LINE
8
BLACK
6
CONTINUOUS
10
6.82829
20
-3.34755
11
6.81881
21
-3.34597
0
LINE
8
BLACK
6
CONTINUOUS
10
6.81881
20
-3.34597
11
6.80919
21
-3.34597
0
LINE
8
BLACK
6
CONTINUOUS
10
6.80919
20
-3.34597
11
6.79971
21
-3.34755
0
LINE
8
BLACK
6
CONTINUOUS
10
6.79971
20
-3.34755
11
6.79061
21
-3.35067
0
LINE
8
BLACK
6
CONTINUOUS
10
6.79061
20
-3.35067
11
6.78215
21
-3.35525
0
LINE
8
BLACK
6
CONTINUOUS
10
6.78215
20
-3.35525
11
6.77456
21
-3.36116
0
LINE
8
BLACK
6
CONTINUOUS
10
6.77456
20
-3.36116
11
6.76805
21
-3.36823
0
LINE
8
BLACK
6
CONTINUOUS
10
6.76805
20
-3.36823
11
6.76279
21
-3.37629
0
LINE
8
BLACK
6
CONTINUOUS
10
6.76279
20
-3.37629
11
6.75892
21
-3.38509
0
LINE
8
BLACK
6
CONTINUOUS
10
6.75892
20
-3.38509
11
6.75656
21
-3.39442
0
LINE
8
BLACK
6
CONTINUOUS
10
6.75656
20
-3.39442
11
6.75577
21
-3.404
0
LINE
8
BLACK
6
CONTINUOUS
10
6.75577
20
-3.404
11
6.75656
21
-3.41358
0
LINE
8
BLACK
6
CONTINUOUS
10
6.30008
20
-2.98281
11
6.33409
21
-2.98517
0
LINE
8
BLACK
6
CONTINUOUS
10
6.33409
20
-2.98517
11
6.36796
21
-2.9891
0
LINE
8
BLACK
6
CONTINUOUS
10
6.36796
20
-2.9891
11
6.4016
21
-2.99459
0
LINE
8
BLACK
6
CONTINUOUS
10
6.4016
20
-2.99459
11
6.43496
21
-3.00162
0
LINE
8
BLACK
6
CONTINUOUS
10
6.43496
20
-3.00162
11
6.46796
21
-3.01019
0
LINE
8
BLACK
6
CONTINUOUS
10
6.46796
20
-3.01019
11
6.50052
21
-3.02028
0
LINE
8
BLACK
6
CONTINUOUS
10
6.50052
20
-3.02028
11
6.53259
21
-3.03185
0
LINE
8
BLACK
6
CONTINUOUS
10
6.53259
20
-3.03185
11
6.56409
21
-3.0449
0
LINE
8
BLACK
6
CONTINUOUS
10
6.56409
20
-3.0449
11
6.59495
21
-3.05939
0
LINE
8
BLACK
6
CONTINUOUS
10
6.59495
20
-3.05939
11
6.6251
21
-3.07528
0
LINE
8
BLACK
6
CONTINUOUS
10
6.6251
20
-3.07528
11
6.6545
21
-3.09256
0
LINE
8
BLACK
6
CONTINUOUS
10
6.6545
20
-3.09256
11
6.68306
21
-3.11117
0
LINE
8
BLACK
6
CONTINUOUS
10
6.68306
20
-3.11117
11
6.71073
21
-3.13108
0
LINE
8
BLACK
6
CONTINUOUS
10
6.71073
20
-3.13108
11
6.73746
21
-3.15225
0
LINE
8
BLACK
6
CONTINUOUS
10
6.73746
20
-3.15225
11
6.76317
21
-3.17463
0
LINE
8
BLACK
6
CONTINUOUS
10
6.76317
20
-3.17463
11
6.78783
21
-3.19817
0
LINE
8
BLACK
6
CONTINUOUS
10
6.78783
20
-3.19817
11
6.81137
21
-3.22283
0
LINE
8
BLACK
6
CONTINUOUS
10
6.81137
20
-3.22283
11
6.83375
21
-3.24854
0
LINE
8
BLACK
6
CONTINUOUS
10
6.83375
20
-3.24854
11
6.85492
21
-3.27527
0
LINE
8
BLACK
6
CONTINUOUS
10
6.85492
20
-3.27527
11
6.87483
21
-3.30294
0
LINE
8
BLACK
6
CONTINUOUS
10
6.87483
20
-3.30294
11
6.89344
21
-3.3315
0
LINE
8
BLACK
6
CONTINUOUS
10
6.89344
20
-3.3315
11
6.91072
21
-3.3609
0
LINE
8
BLACK
6
CONTINUOUS
10
6.91072
20
-3.3609
11
6.92661
21
-3.39105
0
LINE
8
BLACK
6
CONTINUOUS
10
6.92661
20
-3.39105
11
6.9411
21
-3.42191
0
LINE
8
BLACK
6
CONTINUOUS
10
6.9411
20
-3.42191
11
6.95415
21
-3.45341
0
LINE
8
BLACK
6
CONTINUOUS
10
6.95415
20
-3.45341
11
6.96572
21
-3.48548
0
LINE
8
BLACK
6
CONTINUOUS
10
6.96572
20
-3.48548
11
6.97581
21
-3.51804
0
LINE
8
BLACK
6
CONTINUOUS
10
6.97581
20
-3.51804
11
6.98438
21
-3.55104
0
LINE
8
BLACK
6
CONTINUOUS
10
6.98438
20
-3.55104
11
6.99141
21
-3.5844
0
LINE
8
BLACK
6
CONTINUOUS
10
6.99141
20
-3.5844
11
6.9969
21
-3.61804
0
LINE
8
BLACK
6
CONTINUOUS
10
6.9969
20
-3.61804
11
7.00083
21
-3.65191
0
LINE
8
BLACK
6
CONTINUOUS
10
7.00083
20
-3.65191
11
7.00319
21
-3.68592
0
LINE
8
BLACK
6
CONTINUOUS
10
7.00319
20
-3.68592
11
7.00398
21
-3.72
0
LINE
8
BLACK
6
CONTINUOUS
10
7.00398
20
-3.72
11
7.00319
21
-3.75408
0
LINE
8
BLACK
6
CONTINUOUS
10
7.00319
20
-3.75408
11
7.00083
21
-3.78809
0
LINE
8
BLACK
6
CONTINUOUS
10
7.00083
20
-3.78809
11
6.9969
21
-3.82196
0
LINE
8
BLACK
6
CONTINUOUS
10
6.9969
20
-3.82196
11
6.99141
21
-3.8556
0
LINE
8
BLACK
6
CONTINUOUS
10
6.99141
20
-3.8556
11
6.98438
21
-3.88896
0
LINE
8
BLACK
6
CONTINUOUS
10
6.98438
20
-3.88896
11
6.97581
21
-3.92196
0
LINE
8
BLACK
6
CONTINUOUS
10
6.97581
20
-3.92196
11
6.96572
21
-3.95452
0
LINE
8
BLACK
6
CONTINUOUS
10
6.96572
20
-3.95452
11
6.95415
21
-3.98659
0
LINE
8
BLACK
6
CONTINUOUS
10
6.95415
20
-3.98659
11
6.9411
21
-4.01809
0
LINE
8
BLACK
6
CONTINUOUS
10
6.9411
20
-4.01809
11
6.92661
21
-4.04895
0
LINE
8
BLACK
6
CONTINUOUS
10
6.92661
20
-4.04895
11
6.91072
21
-4.0791
0
LINE
8
BLACK
6
CONTINUOUS
10
6.91072
20
-4.0791
11
6.89344
21
-4.1085
0
LINE
8
BLACK
6
CONTINUOUS
10
6.89344
20
-4.1085
11
6.87483
21
-4.13706
0
LINE
8
BLACK
6
CONTINUOUS
10
6.87483
20
-4.13706
11
6.85492
21
-4.16473
0
LINE
8
BLACK
6
CONTINUOUS
10
6.85492
20
-4.16473
11
6.83375
21
-4.19146
0
LINE
8
BLACK
6
CONTINUOUS
10
6.83375
20
-4.19146
11
6.81137
21
-4.21717
0
LINE
8
BLACK
6
CONTINUOUS
10
6.81137
20
-4.21717
11
6.78783
21
-4.24183
0
LINE
8
BLACK
6
CONTINUOUS
10
6.78783
20
-4.24183
11
6.76317
21
-4.26537
0
LINE
8
BLACK
6
CONTINUOUS
10
6.76317
20
-4.26537
11
6.73746
21
-4.28775
0
LINE
8
BLACK
6
CONTINUOUS
10
6.73746
20
-4.28775
11
6.71073
21
-4.30892
0
LINE
8
BLACK
6
CONTINUOUS
10
6.71073
20
-4.30892
11
6.68306
21
-4.32883
0
LINE
8
BLACK
6
CONTINUOUS
10
6.68306
20
-4.32883
11
6.6545
21
-4.34744
0
LINE
8
BLACK
6
CONTINUOUS
10
6.6545
20
-4.34744
11
6.6251
21
-4.36472
0
LINE
8
BLACK
6
CONTINUOUS
10
6.6251
20
-4.36472
11
6.59495
21
-4.38061
0
LINE
8
BLACK
6
CONTINUOUS
10
6.59495
20
-4.38061
11
6.56409
21
-4.3951
0
LINE
8
BLACK
6
CONTINUOUS
10
6.56409
20
-4.3951
11
6.53259
21
-4.40815
0
LINE
8
BLACK
6
CONTINUOUS
10
6.53259
20
-4.40815
11
6.50052
21
-4.41972
0
LINE
8
BLACK
6
CONTINUOUS
10
6.50052
20
-4.41972
11
6.46796
21
-4.42981
0
LINE
8
BLACK
6
CONTINUOUS
10
6.46796
20
-4.42981
11
6.43496
21
-4.43838
0
LINE
8
BLACK
6
CONTINUOUS
10
6.43496
20
-4.43838
11
6.4016
21
-4.44541
0
LINE
8
BLACK
6
CONTINUOUS
10
6.4016
20
-4.44541
11
6.36796
21
-4.4509
0
LINE
8
BLACK
6
CONTINUOUS
10
6.36796
20
-4.4509
11
6.33409
21
-4.45483
0
LINE
8
BLACK
6
CONTINUOUS
10
6.33409
20
-4.45483
11
6.30008
21
-4.45719
0
LINE
8
BLACK
6
CONTINUOUS
10
6.30008
20
-4.45719
11
6.266
21
-4.45798
0
LINE
8
BLACK
6
CONTINUOUS
10
6.266
20
-4.45798
11
6.23192
21
-4.45719
0
LINE
8
BLACK
6
CONTINUOUS
10
6.23192
20
-4.45719
11
6.19791
21
-4.45483
0
LINE
8
BLACK
6
CONTINUOUS
10
6.19791
20
-4.45483
11
6.16404
21
-4.4509
0
LINE
8
BLACK
6
CONTINUOUS
10
6.16404
20
-4.4509
11
6.1304
21
-4.44541
0
LINE
8
BLACK
6
CONTINUOUS
10
6.1304
20
-4.44541
11
6.09704
21
-4.43838
0
LINE
8
BLACK
6
CONTINUOUS
10
6.09704
20
-4.43838
11
6.06404
21
-4.42981
0
LINE
8
BLACK
6
CONTINUOUS
10
6.06404
20
-4.42981
11
6.03148
21
-4.41972
0
LINE
8
BLACK
6
CONTINUOUS
10
6.03148
20
-4.41972
11
5.99941
21
-4.40815
0
LINE
8
BLACK
6
CONTINUOUS
10
5.99941
20
-4.40815
11
5.96791
21
-4.3951
0
LINE
8
BLACK
6
CONTINUOUS
10
5.96791
20
-4.3951
11
5.93705
21
-4.38061
0
LINE
8
BLACK
6
CONTINUOUS
10
5.93705
20
-4.38061
11
5.9069
21
-4.36472
0
LINE
8
BLACK
6
CONTINUOUS
10
5.9069
20
-4.36472
11
5.8775
21
-4.34744
0
LINE
8
BLACK
6
CONTINUOUS
10
5.8775
20
-4.34744
11
5.84894
21
-4.32883
0
LINE
8
BLACK
6
CONTINUOUS
10
5.84894
20
-4.32883
11
5.82127
21
-4.30892
0
LINE
8
BLACK
6
CONTINUOUS
10
5.82127
20
-4.30892
11
5.79454
21
-4.28775
0
LINE
8
BLACK
6
CONTINUOUS
10
5.79454
20
-4.28775
11
5.76883
21
-4.26537
0
LINE
8
BLACK
6
CONTINUOUS
10
5.76883
20
-4.26537
11
5.74417
21
-4.24183
0
LINE
8
BLACK
6
CONTINUOUS
10
5.74417
20
-4.24183
11
5.72063
21
-4.21717
0
LINE
8
BLACK
6
CONTINUOUS
10
5.72063
20
-4.21717
11
5.69825
21
-4.19146
0
LINE
8
BLACK
6
CONTINUOUS
10
5.69825
20
-4.19146
11
5.67708
21
-4.16473
0
LINE
8
BLACK
6
CONTINUOUS
10
5.67708
20
-4.16473
11
5.65717
21
-4.13706
0
LINE
8
BLACK
6
CONTINUOUS
10
5.65717
20
-4.13706
11
5.63856
21
-4.1085
0
LINE
8
BLACK
6
CONTINUOUS
10
5.63856
20
-4.1085
11
5.62128
21
-4.0791
0
LINE
8
BLACK
6
CONTINUOUS
10
5.62128
20
-4.0791
11
5.60539
21
-4.04895
0
LINE
8
BLACK
6
CONTINUOUS
10
5.60539
20
-4.04895
11
5.5909
21
-4.01809
0
LINE
8
BLACK
6
CONTINUOUS
10
5.5909
20
-4.01809
11
5.57785
21
-3.98659
0
LINE
8
BLACK
6
CONTINUOUS
10
5.57785
20
-3.98659
11
5.56628
21
-3.95452
0
LINE
8
BLACK
6
CONTINUOUS
10
5.56628
20
-3.95452
11
5.55619
21
-3.92196
0
LINE
8
BLACK
6
CONTINUOUS
10
5.55619
20
-3.92196
11
5.54762
21
-3.88896
0
LINE
8
BLACK
6
CONTINUOUS
10
5.54762
20
-3.88896
11
5.54059
21
-3.8556
0
LINE
8
BLACK
6
CONTINUOUS
10
5.54059
20
-3.8556
11
5.5351
21
-3.82196
0
LINE
8
BLACK
6
CONTINUOUS
10
5.5351
20
-3.82196
11
5.53117
21
-3.78809
0
LINE
8
BLACK
6
CONTINUOUS
10
5.53117
20
-3.78809
11
5.52881
21
-3.75408
0
LINE
8
BLACK
6
CONTINUOUS
10
5.52881
20
-3.75408
11
5.52802
21
-3.72
0
LINE
8
BLACK
6
CONTINUOUS
10
5.52802
20
-3.72
11
5.52881
21
-3.68592
0
LINE
8
BLACK
6
CONTINUOUS
10
5.52881
20
-3.68592
11
5.53117
21
-3.65191
0
LINE
8
BLACK
6
CONTINUOUS
10
5.53117
20
-3.65191
11
5.5351
21
-3.61804
0
LINE
8
BLACK
6
CONTINUOUS
10
5.5351
20
-3.61804
11
5.54059
21
-3.5844
0
LINE
8
BLACK
6
CONTINUOUS
10
5.54059
20
-3.5844
11
5.54762
21
-3.55104
0
LINE
8
BLACK
6
CONTINUOUS
10
5.54762
20
-3.55104
11
5.55619
21
-3.51804
0
LINE
8
BLACK
6
CONTINUOUS
10
5.55619
20
-3.51804
11
5.56628
21
-3.48548
0
LINE
8
BLACK
6
CONTINUOUS
10
5.56628
20
-3.48548
11
5.57785
21
-3.45341
0
LINE
8
BLACK
6
CONTINUOUS
10
5.57785
20
-3.45341
11
5.5909
21
-3.42191
0
LINE
8
BLACK
6
CONTINUOUS
10
5.5909
20
-3.42191
11
5.60539
21
-3.39105
0
LINE
8
BLACK
6
CONTINUOUS
10
5.60539
20
-3.39105
11
5.62128
21
-3.3609
0
LINE
8
BLACK
6
CONTINUOUS
10
5.62128
20
-3.3609
11
5.63856
21
-3.3315
0
LINE
8
BLACK
6
CONTINUOUS
10
5.63856
20
-3.3315
11
5.65717
21
-3.30294
0
LINE
8
BLACK
6
CONTINUOUS
10
5.65717
20
-3.30294
11
5.67708
21
-3.27527
0
LINE
8
BLACK
6
CONTINUOUS
10
5.67708
20
-3.27527
11
5.69825
21
-3.24854
0
LINE
8
BLACK
6
CONTINUOUS
10
5.69825
20
-3.24854
11
5.72063
21
-3.22283
0
LINE
8
BLACK
6
CONTINUOUS
10
5.72063
20
-3.22283
11
5.74417
21
-3.19817
0
LINE
8
BLACK
6
CONTINUOUS
10
5.74417
20
-3.19817
11
5.76883
21
-3.17463
0
LINE
8
BLACK
6
CONTINUOUS
10
5.76883
20
-3.17463
11
5.79454
21
-3.15225
0
LINE
8
BLACK
6
CONTINUOUS
10
5.79454
20
-3.15225
11
5.82127
21
-3.13108
0
LINE
8
BLACK
6
CONTINUOUS
10
5.82127
20
-3.13108
11
5.84894
21
-3.11117
0
LINE
8
BLACK
6
CONTINUOUS
10
5.84894
20
-3.11117
11
5.8775
21
-3.09256
0
LINE
8
BLACK
6
CONTINUOUS
10
5.8775
20
-3.09256
11
5.9069
21
-3.07528
0
LINE
8
BLACK
6
CONTINUOUS
10
5.9069
20
-3.07528
11
5.93705
21
-3.05939
0
LINE
8
BLACK
6
CONTINUOUS
10
5.93705
20
-3.05939
11
5.96791
21
-3.0449
0
LINE
8
BLACK
6
CONTINUOUS
10
5.96791
20
-3.0449
11
5.99941
21
-3.03185
0
LINE
8
BLACK
6
CONTINUOUS
10
5.99941
20
-3.03185
11
6.03148
21
-3.02028
0
LINE
8
BLACK
6
CONTINUOUS
10
6.03148
20
-3.02028
11
6.06404
21
-3.01019
0
LINE
8
BLACK
6
CONTINUOUS
10
6.06404
20
-3.01019
11
6.09704
21
-3.00162
0
LINE
8
BLACK
6
CONTINUOUS
10
6.09704
20
-3.00162
11
6.1304
21
-2.99459
0
LINE
8
BLACK
6
CONTINUOUS
10
6.1304
20
-2.99459
11
6.16404
21
-2.9891
0
LINE
8
BLACK
6
CONTINUOUS
10
6.16404
20
-2.9891
11
6.19791
21
-2.98517
0
LINE
8
BLACK
6
CONTINUOUS
10
6.19791
20
-2.98517
11
6.23192
21
-2.98281
0
LINE
8
BLACK
6
CONTINUOUS
10
6.23192
20
-2.98281
11
6.266
21
-2.98202
0
LINE
8
BLACK
6
CONTINUOUS
10
6.266
20
-2.98202
11
6.30008
21
-2.98281
0
LINE
8
BLACK
6
CONTINUOUS
10
5.53255
20
-3.75391
11
5.53489
21
-3.78775
0
LINE
8
BLACK
6
CONTINUOUS
10
5.53489
20
-3.78775
11
5.5388
21
-3.82144
0
LINE
8
BLACK
6
CONTINUOUS
10
5.5388
20
-3.82144
11
5.54426
21
-3.85492
0
LINE
8
BLACK
6
CONTINUOUS
10
5.54426
20
-3.85492
11
5.55126
21
-3.8881
0
LINE
8
BLACK
6
CONTINUOUS
10
5.55126
20
-3.8881
11
5.55979
21
-3.92093
0
LINE
8
BLACK
6
CONTINUOUS
10
5.55979
20
-3.92093
11
5.56982
21
-3.95333
0
LINE
8
BLACK
6
CONTINUOUS
10
5.56982
20
-3.95333
11
5.58134
21
-3.98524
0
LINE
8
BLACK
6
CONTINUOUS
10
5.58134
20
-3.98524
11
5.59432
21
-4.01657
0
LINE
8
BLACK
6
CONTINUOUS
10
5.59432
20
-4.01657
11
5.60874
21
-4.04728
0
LINE
8
BLACK
6
CONTINUOUS
10
5.60874
20
-4.04728
11
5.62455
21
-4.07728
0
LINE
8
BLACK
6
CONTINUOUS
10
5.62455
20
-4.07728
11
5.64174
21
-4.10653
0
LINE
8
BLACK
6
CONTINUOUS
10
5.64174
20
-4.10653
11
5.66026
21
-4.13494
0
LINE
8
BLACK
6
CONTINUOUS
10
5.66026
20
-4.13494
11
5.68007
21
-4.16248
0
LINE
8
BLACK
6
CONTINUOUS
10
5.68007
20
-4.16248
11
5.70113
21
-4.18907
0
LINE
8
BLACK
6
CONTINUOUS
10
5.70113
20
-4.18907
11
5.72339
21
-4.21465
0
LINE
8
BLACK
6
CONTINUOUS
10
5.72339
20
-4.21465
11
5.74682
21
-4.23918
0
LINE
8
BLACK
6
CONTINUOUS
10
5.74682
20
-4.23918
11
5.77135
21
-4.26261
0
LINE
8
BLACK
6
CONTINUOUS
10
5.77135
20
-4.26261
11
5.79693
21
-4.28487
0
LINE
8
BLACK
6
CONTINUOUS
10
5.79693
20
-4.28487
11
5.82352
21
-4.30593
0
LINE
8
BLACK
6
CONTINUOUS
10
5.82352
20
-4.30593
11
5.85106
21
-4.32574
0
LINE
8
BLACK
6
CONTINUOUS
10
5.85106
20
-4.32574
11
5.87947
21
-4.34426
0
LINE
8
BLACK
6
CONTINUOUS
10
5.87947
20
-4.34426
11
5.90872
21
-4.36145
0
LINE
8
BLACK
6
CONTINUOUS
10
5.90872
20
-4.36145
11
5.93872
21
-4.37726
0
LINE
8
BLACK
6
CONTINUOUS
10
5.93872
20
-4.37726
11
5.96943
21
-4.39168
0
LINE
8
BLACK
6
CONTINUOUS
10
5.96943
20
-4.39168
11
6.00076
21
-4.40466
0
LINE
8
BLACK
6
CONTINUOUS
10
6.00076
20
-4.40466
11
6.03267
21
-4.41618
0
LINE
8
BLACK
6
CONTINUOUS
10
6.03267
20
-4.41618
11
6.06507
21
-4.42621
0
LINE
8
BLACK
6
CONTINUOUS
10
6.06507
20
-4.42621
11
6.0979
21
-4.43474
0
LINE
8
BLACK
6
CONTINUOUS
10
6.0979
20
-4.43474
11
6.13108
21
-4.44174
0
LINE
8
BLACK
6
CONTINUOUS
10
6.13108
20
-4.44174
11
6.16456
21
-4.4472
0
LINE
8
BLACK
6
CONTINUOUS
10
6.16456
20
-4.4472
11
6.19825
21
-4.45111
0
LINE
8
BLACK
6
CONTINUOUS
10
6.19825
20
-4.45111
11
6.23209
21
-4.45345
0
LINE
8
BLACK
6
CONTINUOUS
10
6.23209
20
-4.45345
11
6.266
21
-4.45424
0
LINE
8
BLACK
6
CONTINUOUS
10
6.266
20
-4.45424
11
6.29991
21
-4.45345
0
LINE
8
BLACK
6
CONTINUOUS
10
6.29991
20
-4.45345
11
6.33375
21
-4.45111
0
LINE
8
BLACK
6
CONTINUOUS
10
6.33375
20
-4.45111
11
6.36744
21
-4.4472
0
LINE
8
BLACK
6
CONTINUOUS
10
6.36744
20
-4.4472
11
6.40092
21
-4.44174
0
LINE
8
BLACK
6
CONTINUOUS
10
6.40092
20
-4.44174
11
6.4341
21
-4.43474
0
LINE
8
BLACK
6
CONTINUOUS
10
6.4341
20
-4.43474
11
6.46693
21
-4.42621
0
LINE
8
BLACK
6
CONTINUOUS
10
6.46693
20
-4.42621
11
6.49933
21
-4.41618
0
LINE
8
BLACK
6
CONTINUOUS
10
6.49933
20
-4.41618
11
6.53124
21
-4.40466
0
LINE
8
BLACK
6
CONTINUOUS
10
6.53124
20
-4.40466
11
6.56257
21
-4.39168
0
LINE
8
BLACK
6
CONTINUOUS
10
6.56257
20
-4.39168
11
6.59328
21
-4.37726
0
LINE
8
BLACK
6
CONTINUOUS
10
6.59328
20
-4.37726
11
6.62328
21
-4.36145
0
LINE
8
BLACK
6
CONTINUOUS
10
6.62328
20
-4.36145
11
6.65253
21
-4.34426
0
LINE
8
BLACK
6
CONTINUOUS
10
6.65253
20
-4.34426
11
6.68094
21
-4.32574
0
LINE
8
BLACK
6
CONTINUOUS
10
6.68094
20
-4.32574
11
6.70848
21
-4.30593
0
LINE
8
BLACK
6
CONTINUOUS
10
6.70848
20
-4.30593
11
6.73507
21
-4.28487
0
LINE
8
BLACK
6
CONTINUOUS
10
6.73507
20
-4.28487
11
6.76065
21
-4.26261
0
LINE
8
BLACK
6
CONTINUOUS
10
6.76065
20
-4.26261
11
6.78518
21
-4.23918
0
LINE
8
BLACK
6
CONTINUOUS
10
6.78518
20
-4.23918
11
6.80861
21
-4.21465
0
LINE
8
BLACK
6
CONTINUOUS
10
6.80861
20
-4.21465
11
6.83087
21
-4.18907
0
LINE
8
BLACK
6
CONTINUOUS
10
6.83087
20
-4.18907
11
6.85193
21
-4.16248
0
LINE
8
BLACK
6
CONTINUOUS
10
6.85193
20
-4.16248
11
6.87174
21
-4.13494
0
LINE
8
BLACK
6
CONTINUOUS
10
6.87174
20
-4.13494
11
6.89026
21
-4.10653
0
LINE
8
BLACK
6
CONTINUOUS
10
6.89026
20
-4.10653
11
6.90745
21
-4.07728
0
LINE
8
BLACK
6
CONTINUOUS
10
6.90745
20
-4.07728
11
6.92326
21
-4.04728
0
LINE
8
BLACK
6
CONTINUOUS
10
6.92326
20
-4.04728
11
6.93768
21
-4.01657
0
LINE
8
BLACK
6
CONTINUOUS
10
6.93768
20
-4.01657
11
6.95066
21
-3.98524
0
LINE
8
BLACK
6
CONTINUOUS
10
6.95066
20
-3.98524
11
6.96218
21
-3.95333
0
LINE
8
BLACK
6
CONTINUOUS
10
6.96218
20
-3.95333
11
6.97221
21
-3.92093
0
LINE
8
BLACK
6
CONTINUOUS
10
6.97221
20
-3.92093
11
6.98074
21
-3.8881
0
LINE
8
BLACK
6
CONTINUOUS
10
6.98074
20
-3.8881
11
6.98774
21
-3.85492
0
LINE
8
BLACK
6
CONTINUOUS
10
6.98774
20
-3.85492
11
6.9932
21
-3.82144
0
LINE
8
BLACK
6
CONTINUOUS
10
6.9932
20
-3.82144
11
6.99711
21
-3.78775
0
LINE
8
BLACK
6
CONTINUOUS
10
6.99711
20
-3.78775
11
6.99945
21
-3.75391
0
LINE
8
BLACK
6
CONTINUOUS
10
6.99945
20
-3.75391
11
7.00024
21
-3.72
0
LINE
8
BLACK
6
CONTINUOUS
10
7.00024
20
-3.72
11
6.99945
21
-3.68609
0
LINE
8
BLACK
6
CONTINUOUS
10
6.99945
20
-3.68609
11
6.99711
21
-3.65225
0
LINE
8
BLACK
6
CONTINUOUS
10
6.99711
20
-3.65225
11
6.9932
21
-3.61856
0
LINE
8
BLACK
6
CONTINUOUS
10
6.9932
20
-3.61856
11
6.98774
21
-3.58508
0
LINE
8
BLACK
6
CONTINUOUS
10
6.98774
20
-3.58508
11
6.98074
21
-3.5519
0
LINE
8
BLACK
6
CONTINUOUS
10
6.98074
20
-3.5519
11
6.97221
21
-3.51907
0
LINE
8
BLACK
6
CONTINUOUS
10
6.97221
20
-3.51907
11
6.96218
21
-3.48667
0
LINE
8
BLACK
6
CONTINUOUS
10
6.96218
20
-3.48667
11
6.95066
21
-3.45476
0
LINE
8
BLACK
6
CONTINUOUS
10
6.95066
20
-3.45476
11
6.93768
21
-3.42343
0
LINE
8
BLACK
6
CONTINUOUS
10
6.93768
20
-3.42343
11
6.92326
21
-3.39272
0
LINE
8
BLACK
6
CONTINUOUS
10
6.92326
20
-3.39272
11
6.90745
21
-3.36272
0
LINE
8
BLACK
6
CONTINUOUS
10
6.90745
20
-3.36272
11
6.89026
21
-3.33347
0
LINE
8
BLACK
6
CONTINUOUS
10
6.89026
20
-3.33347
11
6.87174
21
-3.30506
0
LINE
8
BLACK
6
CONTINUOUS
10
6.87174
20
-3.30506
11
6.85193
21
-3.27752
0
LINE
8
BLACK
6
CONTINUOUS
10
6.85193
20
-3.27752
11
6.83087
21
-3.25093
0
LINE
8
BLACK
6
CONTINUOUS
10
6.83087
20
-3.25093
11
6.80861
21
-3.22535
0
LINE
8
BLACK
6
CONTINUOUS
10
6.80861
20
-3.22535
11
6.78518
21
-3.20082
0
LINE
8
BLACK
6
CONTINUOUS
10
6.78518
20
-3.20082
11
6.76065
21
-3.17739
0
LINE
8
BLACK
6
CONTINUOUS
10
6.76065
20
-3.17739
11
6.73507
21
-3.15513
0
LINE
8
BLACK
6
CONTINUOUS
10
6.73507
20
-3.15513
11
6.70848
21
-3.13407
0
LINE
8
BLACK
6
CONTINUOUS
10
6.70848
20
-3.13407
11
6.68094
21
-3.11426
0
LINE
8
BLACK
6
CONTINUOUS
10
6.68094
20
-3.11426
11
6.65253
21
-3.09574
0
LINE
8
BLACK
6
CONTINUOUS
10
6.65253
20
-3.09574
11
6.62328
21
-3.07855
0
LINE
8
BLACK
6
CONTINUOUS
10
6.62328
20
-3.07855
11
6.59328
21
-3.06274
0
LINE
8
BLACK
6
CONTINUOUS
10
6.59328
20
-3.06274
11
6.56257
21
-3.04832
0
LINE
8
BLACK
6
CONTINUOUS
10
6.56257
20
-3.04832
11
6.53124
21
-3.03534
0
LINE
8
BLACK
6
CONTINUOUS
10
6.53124
20
-3.03534
11
6.49933
21
-3.02382
0
LINE
8
BLACK
6
CONTINUOUS
10
6.49933
20
-3.02382
11
6.46693
21
-3.01379
0
LINE
8
BLACK
6
CONTINUOUS
10
6.46693
20
-3.01379
11
6.4341
21
-3.00526
0
LINE
8
BLACK
6
CONTINUOUS
10
6.4341
20
-3.00526
11
6.40092
21
-2.99826
0
LINE
8
BLACK
6
CONTINUOUS
10
6.40092
20
-2.99826
11
6.36744
21
-2.9928
0
LINE
8
BLACK
6
CONTINUOUS
10
6.36744
20
-2.9928
11
6.33375
21
-2.98889
0
LINE
8
BLACK
6
CONTINUOUS
10
6.33375
20
-2.98889
11
6.29991
21
-2.98655
0
LINE
8
BLACK
6
CONTINUOUS
10
6.29991
20
-2.98655
11
6.266
21
-2.98576
0
LINE
8
BLACK
6
CONTINUOUS
10
6.266
20
-2.98576
11
6.23209
21
-2.98655
0
LINE
8
BLACK
6
CONTINUOUS
10
6.23209
20
-2.98655
11
6.19825
21
-2.98889
0
LINE
8
BLACK
6
CONTINUOUS
10
6.19825
20
-2.98889
11
6.16456
21
-2.9928
0
LINE
8
BLACK
6
CONTINUOUS
10
6.16456
20
-2.9928
11
6.13108
21
-2.99826
0
LINE
8
BLACK
6
CONTINUOUS
10
6.13108
20
-2.99826
11
6.0979
21
-3.00526
0
LINE
8
BLACK
6
CONTINUOUS
10
6.0979
20
-3.00526
11
6.06507
21
-3.01379
0
LINE
8
BLACK
6
CONTINUOUS
10
6.06507
20
-3.01379
11
6.03267
21
-3.02382
0
LINE
8
BLACK
6
CONTINUOUS
10
6.03267
20
-3.02382
11
6.00076
21
-3.03534
0
LINE
8
BLACK
6
CONTINUOUS
10
6.00076
20
-3.03534
11
5.96943
21
-3.04832
0
LINE
8
BLACK
6
CONTINUOUS
10
5.96943
20
-3.04832
11
5.93872
21
-3.06274
0
LINE
8
BLACK
6
CONTINUOUS
10
5.93872
20
-3.06274
11
5.90872
21
-3.07855
0
LINE
8
BLACK
6
CONTINUOUS
10
5.90872
20
-3.07855
11
5.87947
21
-3.09574
0
LINE
8
BLACK
6
CONTINUOUS
10
5.87947
20
-3.09574
11
5.85106
21
-3.11426
0
LINE
8
BLACK
6
CONTINUOUS
10
5.85106
20
-3.11426
11
5.82352
21
-3.13407
0
LINE
8
BLACK
6
CONTINUOUS
10
5.82352
20
-3.13407
11
5.79693
21
-3.15513
0
LINE
8
BLACK
6
CONTINUOUS
10
5.79693
20
-3.15513
11
5.77135
21
-3.17739
0
LINE
8
BLACK
6
CONTINUOUS
10
5.77135
20
-3.17739
11
5.74682
21
-3.20082
0
LINE
8
BLACK
6
CONTINUOUS
10
5.74682
20
-3.20082
11
5.72339
21
-3.22535
0
LINE
8
BLACK
6
CONTINUOUS
10
5.72339
20
-3.22535
11
5.70113
21
-3.25093
0
LINE
8
BLACK
6
CONTINUOUS
10
5.70113
20
-3.25093
11
5.68007
21
-3.27752
0
LINE
8
BLACK
6
CONTINUOUS
10
5.68007
20
-3.27752
11
5.66026
21
-3.30506
0
LINE
8
BLACK
6
CONTINUOUS
10
5.66026
20
-3.30506
11
5.64174
21
-3.33347
0
LINE
8
BLACK
6
CONTINUOUS
10
5.64174
20
-3.33347
11
5.62455
21
-3.36272
0
LINE
8
BLACK
6
CONTINUOUS
10
5.62455
20
-3.36272
11
5.60874
21
-3.39272
0
LINE
8
BLACK
6
CONTINUOUS
10
5.60874
20
-3.39272
11
5.59432
21
-3.42343
0
LINE
8
BLACK
6
CONTINUOUS
10
5.59432
20
-3.42343
11
5.58134
21
-3.45476
0
LINE
8
BLACK
6
CONTINUOUS
10
5.58134
20
-3.45476
11
5.56982
21
-3.48667
0
LINE
8
BLACK
6
CONTINUOUS
10
5.56982
20
-3.48667
11
5.55979
21
-3.51907
0
LINE
8
BLACK
6
CONTINUOUS
10
5.55979
20
-3.51907
11
5.55126
21
-3.5519
0
LINE
8
BLACK
6
CONTINUOUS
10
5.55126
20
-3.5519
11
5.54426
21
-3.58508
0
LINE
8
BLACK
6
CONTINUOUS
10
5.54426
20
-3.58508
11
5.5388
21
-3.61856
0
LINE
8
BLACK
6
CONTINUOUS
10
5.5388
20
-3.61856
11
5.53489
21
-3.65225
0
LINE
8
BLACK
6
CONTINUOUS
10
5.53489
20
-3.65225
11
5.53255
21
-3.68609
0
LINE
8
BLACK
6
CONTINUOUS
10
5.53255
20
-3.68609
11
5.53176
21
-3.72
0
LINE
8
BLACK
6
CONTINUOUS
10
5.53176
20
-3.72
11
5.53255
21
-3.75391
  0
ENDSEC
  0
EOF
